<svg width="32" height="32" viewBox="0 0 32 32" fill="none" xmlns="http://www.w3.org/2000/svg">
<g style="mix-blend-mode:multiply">
<path fill-rule="evenodd" clip-rule="evenodd" d="M0.502851 0.627623C3.69683 4.54732 7.20373 9.47165 7.77096 10.2681C7.8012 10.3106 7.82309 10.3413 7.83613 10.3595C8.13849 10.7821 8.38811 11.0963 8.57768 11.3348C8.9985 11.8644 9.12339 12.0216 8.87229 12.1659C8.66974 12.2823 8.4608 12.3207 8.25231 12.3207C8.01649 12.3207 7.7508 12.2059 7.55735 12.0203C7.42061 11.8892 6.48498 10.5152 5.21092 8.51635C4.23609 6.98688 3.42027 5.71812 3.39802 5.69688C3.34657 5.64775 3.34744 5.64941 5.11153 8.84093C6.21921 10.845 6.97692 12.326 6.97692 12.4207C6.97692 12.6134 6.9249 12.7147 6.68978 12.9799C6.29781 13.4221 6.12258 13.9189 5.9961 14.9471C5.8543 16.0996 5.45557 16.9139 4.35056 18.3072C3.70373 19.1229 3.59789 19.2724 3.43467 19.6012C3.2291 20.0152 3.17256 20.2471 3.14965 20.7699C3.12544 21.3227 3.1726 21.6797 3.33961 22.2081C3.48583 22.6708 3.63845 22.9764 4.02861 23.5875C4.36533 24.1147 4.55921 24.5065 4.55921 24.6599C4.55921 24.7819 4.58224 24.782 5.104 24.6629C6.35265 24.3777 7.36654 23.8764 7.93677 23.2619C8.28968 22.8815 8.37254 22.6715 8.37522 22.1503C8.37699 21.8093 8.36512 21.738 8.27399 21.5419C8.12563 21.2225 7.85553 20.9572 7.26025 20.5457C6.48025 20.0065 6.1471 19.5725 6.05508 18.9756C5.9796 18.4859 6.06717 18.1403 6.49867 17.2259C6.94528 16.2793 7.05597 15.876 7.13084 14.9219C7.17919 14.3055 7.24616 14.0624 7.42131 13.8673C7.60398 13.6639 7.76842 13.5949 8.22049 13.5324C8.95751 13.4307 9.4268 13.2379 9.81256 12.8784C10.1472 12.5666 10.2872 12.2662 10.3087 11.8139L10.325 11.4711L10.138 11.2506C9.46081 10.4522 0.0493195 0 0.00764302 0C-0.00126026 0 0.221592 0.282449 0.502851 0.627623ZM4.93937 21.3953C5.09249 21.1211 5.01114 20.7687 4.755 20.5964C4.513 20.4337 4.13707 20.5104 4.13707 20.7224C4.13707 20.7871 4.17245 20.8341 4.25221 20.8757C4.38648 20.9456 4.39623 21.0241 4.29058 21.1847C4.18359 21.3473 4.19222 21.4903 4.31494 21.5873C4.51274 21.744 4.79273 21.6579 4.93937 21.3953ZM9.54812 6.44327C9.24598 6.39588 9.23325 6.39032 9.37542 6.36823C9.64789 6.32585 10.2913 6.3836 10.7346 6.4902C11.7697 6.73896 12.7115 7.37624 13.7168 8.50805L13.9839 8.80873L14.366 8.74663C15.9757 8.48507 17.6132 8.69293 18.9828 9.33268C19.3596 9.50869 19.9537 9.85904 20.0279 9.94907C20.0514 9.97776 20.095 10.1625 20.1243 10.3595C20.226 11.0414 20.1752 11.5641 19.9688 11.9544C19.8567 12.1668 19.8504 12.2342 19.9258 12.416C19.986 12.561 20.154 12.6684 20.3203 12.6682C20.6607 12.6677 21.0269 12.1114 21.1968 11.3373L21.2642 11.0298L21.3978 11.1828C22.1303 12.0221 22.7059 13.1667 22.8047 13.9815L22.8304 14.1939L22.7073 14.0008C22.4953 13.6685 22.2824 13.4423 22.0097 13.2598C21.5182 12.9309 20.9983 12.819 19.6219 12.7457C18.3786 12.6794 17.6751 12.5721 16.9774 12.342C15.7903 11.9507 15.192 11.4295 13.7818 9.55893C13.1556 8.72808 12.7685 8.26839 12.3834 7.89819C11.5084 7.05703 10.6487 6.61588 9.54812 6.44327ZM20.3082 8.29836C20.3395 7.74161 20.4143 7.37439 20.5644 7.03903C20.6238 6.90628 20.6794 6.79763 20.688 6.79763C20.6966 6.79763 20.6708 6.89561 20.6306 7.01535C20.5215 7.34083 20.5035 7.78599 20.5787 8.30392C20.6741 8.96109 20.7285 9.05592 21.4153 9.7658C21.7375 10.0988 22.1123 10.5187 22.2482 10.699L22.4953 11.0268L22.2482 10.7926C21.9461 10.5061 21.2514 9.94729 21.0979 9.86741C20.995 9.81385 20.9797 9.81477 20.9163 9.87865C20.8578 9.93752 20.8454 10.026 20.8373 10.4441C20.8246 11.0958 20.7368 11.5141 20.5248 11.9323C20.4101 12.1585 20.392 12.1103 20.4958 11.8549C20.5733 11.6643 20.5811 11.5805 20.5806 10.9496C20.5794 9.68203 20.4305 9.37729 19.5577 8.85527C19.3367 8.72303 18.9723 8.53231 18.7481 8.43141C18.5241 8.33053 18.346 8.24267 18.3524 8.23611C18.3772 8.21123 19.2284 8.46244 19.571 8.59568C20.0806 8.79389 20.1646 8.81959 20.2266 8.79567C20.268 8.77964 20.2881 8.65748 20.3082 8.29836ZM9.2243 7.32523C9.14214 8.30385 9.52164 9.61297 10.135 10.4668C10.6105 11.1287 11.3475 11.643 11.8917 11.6927C12.248 11.7252 12.355 11.6124 12.1938 11.3745C11.9701 11.044 11.6948 10.5352 11.622 10.3173C11.5768 10.182 11.4784 9.78225 11.4035 9.42901C11.1476 8.22301 10.8962 7.75336 10.3153 7.39664C10.1036 7.26663 9.6515 7.09649 9.38932 7.04815L9.24971 7.02237L9.2243 7.32523ZM19.5643 16.8215C16.6979 15.6545 15.6882 14.6416 15.6882 12.9325C15.6882 12.681 15.6969 12.4752 15.7073 12.4752C15.7178 12.4752 15.8286 12.5582 15.9537 12.6597C16.535 13.1311 17.1859 13.3324 18.9879 13.5981C20.0481 13.7547 20.6448 13.8809 21.1953 14.0656C22.9448 14.6523 24.0273 15.8428 24.2854 17.4645C24.3604 17.9357 24.3165 18.8193 24.1948 19.2851C24.0988 19.6529 23.8058 20.3159 23.7281 20.3413C23.7066 20.3484 23.6854 20.2649 23.6799 20.1513C23.6505 19.5424 23.3461 18.9496 22.8351 18.5055C22.2539 18.0005 21.4731 17.5987 19.5643 16.8215ZM17.4135 16.6931C17.4537 16.8143 17.5161 17.0901 17.5519 17.3063C17.7815 18.6879 17.0643 19.8041 15.6691 20.2367C15.5213 20.2824 14.9396 20.3976 14.3761 20.4924C13.2356 20.6844 12.7266 20.8204 12.2153 21.0695C11.8526 21.2461 11.4135 21.5107 11.4396 21.5369C11.448 21.5455 11.5308 21.5255 11.6235 21.4925C12.2684 21.2636 12.9861 21.1451 14.0765 21.0877C14.5092 21.0651 15.0014 21.0288 15.1702 21.0073C16.1416 20.8836 16.8149 20.5852 17.3385 20.0464C17.6298 19.7465 17.8035 19.4672 17.9435 19.0733C18.0322 18.8235 18.0442 18.7307 18.0449 18.288C18.0457 17.8369 18.0349 17.7544 17.9387 17.4769C17.8128 17.1132 17.6643 16.8403 17.4762 16.6268L17.3404 16.4727L17.4135 16.6931ZM18.866 19.6659C18.4851 18.838 18.3977 18.0388 18.6063 17.2935C18.6286 17.2137 18.6645 17.1485 18.6862 17.1485C18.7078 17.1485 18.7975 17.1977 18.8858 17.2577C19.0613 17.3772 19.4133 17.5784 20.351 18.0953C21.5212 18.7404 22.1884 19.2399 22.6421 19.8107C23.0394 20.3104 23.2853 20.8796 23.4035 21.5737C23.4707 21.9669 23.4314 22.9131 23.3316 23.3089C23.017 24.5573 22.2858 25.5379 21.2429 26.1101C21.0901 26.1939 20.9529 26.2627 20.938 26.2631C20.9232 26.2633 20.9789 26.1203 21.0617 25.9449C21.4125 25.2033 21.4525 24.482 21.1873 23.6792C21.0248 23.1876 20.6937 22.5877 20.0251 21.5739C19.2477 20.3952 19.0571 20.0815 18.866 19.6659ZM11.6922 22.3811C10.4866 22.5791 9.16309 23.2241 8.09937 24.1323L7.78269 24.4027L8.061 24.4467C9.51335 24.6759 9.90444 24.8792 10.9119 25.9285C11.4916 26.5323 11.6874 26.6667 12.1683 26.7908C12.8745 26.9731 13.5707 26.6381 13.8095 26.0011C13.9162 25.7164 13.902 25.2451 13.7796 25.0084C13.4884 24.4448 12.6401 24.2627 12.2299 24.6755C11.8883 25.0193 11.9878 25.5373 12.4127 25.6264C12.51 25.6469 12.5073 25.6425 12.388 25.588C12.202 25.5029 12.1212 25.3851 12.1202 25.1975C12.1178 24.7576 12.6156 24.5107 13.0787 24.7219C13.4178 24.8767 13.5525 25.0788 13.5525 25.4332C13.5525 25.9789 13.0931 26.3901 12.5585 26.3229C12.2728 26.2869 11.9233 26.1021 11.7359 25.888C11.2645 25.3489 11.4481 24.4983 12.1064 24.1719C12.6076 23.9235 13.2738 23.9847 13.7904 24.3267C14.3839 24.7197 14.6363 25.0789 15.1475 26.2579C15.314 26.6417 15.5281 27.0739 15.6234 27.2181C16.1077 27.9511 16.6879 28.3105 17.3867 28.3105C17.7722 28.3105 18.0622 28.2393 18.427 28.0552C18.698 27.9183 19.0823 27.6581 19.0546 27.6303C19.0467 27.6224 18.9343 27.6577 18.8047 27.7088C18.0417 28.0097 17.2659 27.9891 16.8155 27.6556C16.5318 27.4457 16.3029 27.0276 16.1853 26.5047C16.1649 26.4141 16.0978 26.0144 16.036 25.6163C15.8794 24.6072 15.729 24.1536 15.3783 23.6331C15.0195 23.1005 14.3297 22.6536 13.5585 22.454C13.0773 22.3295 12.2118 22.2956 11.6922 22.3811ZM10.0037 14.5793C10.1078 14.1905 10.4442 13.8197 10.7902 13.7123C11.0102 13.644 11.4649 13.6876 11.6788 13.7975C12.0931 14.0105 12.394 14.4957 12.3287 14.846C12.2491 15.2731 11.5641 15.6148 10.7762 15.6204C10.3737 15.6232 10.2251 15.5685 10.0714 15.3611C9.97625 15.2325 9.9402 14.8165 10.0037 14.5793ZM11.573 13.9497C11.7796 14.0773 11.8328 14.266 11.7113 14.4405C11.6276 14.5608 11.3684 14.6751 11.1791 14.6751C10.8946 14.6751 10.5843 14.4708 10.5843 14.2837C10.5843 13.9079 11.1794 13.7067 11.573 13.9497Z" fill="#D800A8"/>
</g>
</svg>
